<svg xmlns="http://www.w3.org/2000/svg" viewBox="0 0 512 512">
  <defs>
    <radialGradient id="bg" cx="50%" cy="35%" r="75%">
      <stop offset="0" stop-color="#43245f"/>
      <stop offset="1" stop-color="#120d1a"/>
    </radialGradient>
    <linearGradient id="gate" x1="0" y1="0" x2="0" y2="1">
      <stop stop-color="#ffdf68"/>
      <stop offset="1" stop-color="#ff7a28"/>
    </linearGradient>
  </defs>
  <rect width="512" height="512" rx="104" fill="url(#bg)"/>
  <path d="M102 418V140c0-28 22-50 50-50h208c28 0 50 22 50 50v278h-62V156c0-5-4-9-9-9H173c-5 0-9 4-9 9v262z" fill="url(#gate)"/>
  <path d="M192 418V190h128v228" fill="#21152e"/>
  <circle cx="256" cy="276" r="52" fill="#75e69b"/>
  <path d="M256 238v76M218 276h76" stroke="#10261a" stroke-width="25" stroke-linecap="round"/>
  <path d="M76 418h360" stroke="#ffd76a" stroke-width="24" stroke-linecap="round"/>
</svg>
